# xmcd CD database file
# Copyright (C) 1993-1998 Ti Kan
#
# Track frame offsets:
#	182
#	16102
#	30107
#	48872
#	68355
#	81342
#	96990
#	115600
#	134977
#	150527
#	168917
#
# Disc length: 2487 seconds
#
# Revision: 1
# Processed by: cddbd v1.4b41PL1 Copyright (c) Steve Scherf et al.
# Submitted via: xmcd 2.1 PL2
#
DISCID=7a09b50b
DTITLE=Bigtown Playboys - Hip Joint
DYEAR=1900
DGENRE=
TTITLE0=Ain't No Big Deal On You
TTITLE1=When It Rains It Pours
TTITLE2=Shake Your Hips
TTITLE3=Glamour Girl
TTITLE4=I Don't Care Who Knows
TTITLE5=Kiddio
TTITLE6=Forever True
TTITLE7=Rock Me Again
TTITLE8=Girls All Over The World
TTITLE9=My Heart Is Mended
TTITLE10=No Place To Go
EXTD=
EXTT0=
EXTT1=
EXTT2=
EXTT3=
EXTT4=
EXTT5=
EXTT6=
EXTT7=
EXTT8=
EXTT9=
EXTT10=
PLAYORDER=
